<svg xmlns="http://www.w3.org/2000/svg" version="1" width="975.2" height="219.9"><path d="M38.8 126.9c9.9-5.5 29.2-5 29.2-5L1.6 4l37-2.9 134.2 114.2L816 104.4s58 3.5 81 10 36.2 22.3 45.7 26.5c9.6 4.1 28.8 10.5 30.4 22.1 1.6 11.7 3.5 13.7-10.3 21-13.7 7.4-68.3 19.4-83.8 20.9-15.6 1.5-255.6-1.4-265.4 2.2a320.3 320.3 0 0 1-62.3 11.8c-11.6-.4-133.5-1.9-147-6.1-13.4-4.3-185.5-15-204.7-19.4-19.2-4.4-90.4-21.9-101.9-26.1-11.5-4.2-48-13-55.5-21-7.6-8-3.4-19.4-3.4-19.4z" fill="#e6e6e6" fill-rule="evenodd" stroke="#000" stroke-width="2"/><path d="M109 171s70.6 16 101.3 18.3c30.6 2.3 132.3 5.1 250 9.9 117.9 4.7 530.4-15.9 475.1-3.4-55.3 12.4-48.8 11.2-69.8 12l-253.7 1.3s-24.4 6.3-39 7.3c-14.5 1-159.8-3.1-159.8-3.1l-78.9-7.9s-114.5-6-130.6-9.3C187.6 193 109 171 109 171z" fill-opacity=".3" fill-rule="evenodd"/><path d="M884.5 147.4v19.4s6.8.8 21.2-3.4a98.5 98.5 0 0 0 34.4-23c0-1.1-15.2-10.7-15.2-10.7s1.1 3.5-6.4 7.8c-7.6 4.4-34 10-34 10z" fill-opacity=".3" fill-rule="evenodd" stroke="#000" stroke-width="2"/><path d="M71.7 119.6l-24.5-46s20 33 32.8 38.2c12.8 5.2 85.5 4 85.5 4z" fill-opacity=".3" fill-rule="evenodd"/></svg>